<svg xmlns="http://www.w3.org/2000/svg" viewBox="0 0 69.02 101.67"><defs><style>.cls-1{fill:#808285;}.cls-2{fill:none;stroke:#808285;stroke-miterlimit:10;stroke-width:3px;}</style></defs><title>Asset 3</title><g id="Layer_2" data-name="Layer 2"><g id="Layer_1-2" data-name="Layer 1"><path class="cls-1" d="M55.92,3.88a4.53,4.53,0,0,1,.49-.3A9.27,9.27,0,0,1,57.69,3a12,12,0,0,1,3.9-.63,11.9,11.9,0,0,1,3.9.63,9.18,9.18,0,0,1,1.28.57,4.46,4.46,0,0,1,.49.3,4.46,4.46,0,0,1-.49.3,9.18,9.18,0,0,1-1.28.57,11.9,11.9,0,0,1-3.9.63,12,12,0,0,1-3.9-.63,9.27,9.27,0,0,1-1.28-.57A4.53,4.53,0,0,1,55.92,3.88Z"/><path class="cls-1" d="M26.87,3.88s.38-.13,1.05-.3S29.55,3.21,30.7,3a54,54,0,0,1,8.41-.63A53.45,53.45,0,0,1,47.51,3c1.15.19,2.1.4,2.77.57s1.05.3,1.05.3-.38.13-1.05.3-1.62.38-2.77.57a53.45,53.45,0,0,1-8.41.63,54,54,0,0,1-8.41-.63c-1.15-.19-2.1-.4-2.77-.57S26.87,3.88,26.87,3.88Z"/><line class="cls-2" x1="25.71" y1="3.88" x2="38.39" y2="3.88"/><path class="cls-2" d="M25.8,3.88l-3.42,1.8c-2.12,1.17-5.82,2.18-8.45.18l-1.8-2V7"/><path class="cls-1" d="M12.13,11.07a2.81,2.81,0,0,1-.3-.24,4.23,4.23,0,0,1-.57-.64,3.38,3.38,0,0,1-.63-1.93,3.34,3.34,0,0,1,.63-1.93,4.2,4.2,0,0,1,.57-.64,2.8,2.8,0,0,1,.3-.24,2.79,2.79,0,0,1,.3.24,4.2,4.2,0,0,1,.57.64,3.34,3.34,0,0,1,.63,1.93A3.38,3.38,0,0,1,13,10.2a4.23,4.23,0,0,1-.57.64A2.81,2.81,0,0,1,12.13,11.07Z"/><path class="cls-1" d="M67.17,28.53s.14.54.31,1.5.41,2.31.6,3.95a106.25,106.25,0,0,1,.77,12,105.06,105.06,0,0,1-.51,12c-.16,1.64-.36,3-.52,4s-.28,1.5-.28,1.5-.14-.54-.31-1.5-.41-2.31-.6-3.95a105.05,105.05,0,0,1-.76-12,106.23,106.23,0,0,1,.52-12c.16-1.64.36-3,.52-4S67.17,28.53,67.17,28.53Z"/><path class="cls-1" d="M12.13,13.41s.13.68.3,1.88.38,2.9.56,5,.34,4.44.47,7,.17,5.29.17,8-.06,5.46-.17,8-.27,5-.47,7-.39,3.76-.56,5-.3,1.88-.3,1.88-.13-.68-.3-1.88-.39-2.9-.56-5-.35-4.44-.47-7-.17-5.29-.17-8,.06-5.46.17-8,.27-5,.47-7,.39-3.76.56-5S12.13,13.41,12.13,13.41Z"/><polyline class="cls-2" points="63.57 3.88 67.34 3.88 67.34 48.31"/><path class="cls-1" d="M11.94,60.3a1.67,1.67,0,0,1,.63,1.17,2.27,2.27,0,0,1-.29,1.33c0,.09-.15.22-.17.28l0,.1c0,.07,0,.12,0,.19l-.09.18a1.62,1.62,0,0,1-.11.2,3.25,3.25,0,0,1-.25.37l.18-.71,0,.16s0,.14,0,.12,0,.12,0,.12a.15.15,0,0,0,0,.07c0,.12-.12.26-.18.42s-.12.34-.19.58-.11.49-.15.82a1.7,1.7,0,0,1-.91-.16A2,2,0,0,1,9.49,65,2.46,2.46,0,0,1,9,64.2,2,2,0,0,1,9,64c0-.1,0-.14,0-.19a1.43,1.43,0,0,0,0-.19l0-.16,0-.12.2-.59a3.25,3.25,0,0,1,.18-.41,1.59,1.59,0,0,1,.11-.2l.13-.21a2.85,2.85,0,0,1,.47-.55,3.28,3.28,0,0,1,.28-.22c.08,0,.09,0,.14,0a2.83,2.83,0,0,0,.64-.19,2.49,2.49,0,0,0,.42-.22A4,4,0,0,0,11.94,60.3Z"/><path class="cls-1" d="M10.75,65.27a2.94,2.94,0,0,1,.35.21,1.22,1.22,0,0,1,.34.3,1.9,1.9,0,0,1,.32.54,2.18,2.18,0,0,1,.14.75c0,.33,0,.46,0,.68a.67.67,0,0,1,0,.18s0,.07,0,.11,0,0,0,.08,0,.14,0,.21,0,.29,0,.48c-.21-.15.21.37,0,.3a4.7,4.7,0,0,1,.23.51,4.75,4.75,0,0,1,.24.91,2.94,2.94,0,0,1,0,.41,2.92,2.92,0,0,1-.41.06,4.74,4.74,0,0,1-.94,0,4.69,4.69,0,0,1-.55-.1h0l-.11-.09H10.4l-.07,0-.13-.06-.13-.07-.07,0h0l-.11-.13h0l0,0A2.85,2.85,0,0,1,9,68.64a2.92,2.92,0,0,1,.08-1c0-.09,0-.16.07-.25a2.29,2.29,0,0,1,.11-.25,1.27,1.27,0,0,0,.1-.17s.05-.07.08-.09.27-.37.35-.37a1.71,1.71,0,0,0,.3-.23,2.64,2.64,0,0,0,.28-.3,2.58,2.58,0,0,0,.21-.34A2.93,2.93,0,0,1,10.75,65.27Z"/><path class="cls-1" d="M10.91,69.63l.44.26,0,0a3.35,3.35,0,0,1,1.19.69,1.65,1.65,0,0,1,.46.7,1.61,1.61,0,0,1,0,1L13,72a2.39,2.39,0,0,1,.06.41,1.65,1.65,0,0,1,0,.31c0,.07,0,0,0,.08v.09a1.7,1.7,0,0,0,.07.45,1.57,1.57,0,0,0,.5.71,2,2,0,0,1,.37.66,2.07,2.07,0,0,1,.09.37l0,.27.07.7,0,.18v.22a4,4,0,0,1,0,.56,3.82,3.82,0,0,1-1.69,2.65l-.23.14s-.11.07-.07,0l-.08.07a.78.78,0,0,0-.14.2,1,1,0,0,0-.09.24c0,.21-.12.5-.19.75s-.17.52-.27.77l-.16.39a4.46,4.46,0,0,1-.26.48,4.16,4.16,0,0,1-.65.81,4.41,4.41,0,0,1-.39.34l-.25.19a3,3,0,0,0-.63.68,3.92,3.92,0,0,0-.29.47l-.33.62c-.21.37-.36.73-.63,1.24a4,4,0,0,1-.25.42,3.47,3.47,0,0,1-.36.44,1.92,1.92,0,0,1-1.27.55,2.07,2.07,0,0,1-.46,0l-.35-.05-.7-.13a.49.49,0,0,1-.2-.06.35.35,0,0,0-.16,0,.54.54,0,0,0-.32.22,2.9,2.9,0,0,0-.19.62c-.07.23-.13.47-.2.7-.08-.23-.14-.47-.2-.7A2.85,2.85,0,0,1,3,88.28a1.33,1.33,0,0,1,.44-.93,1.51,1.51,0,0,1,.48-.3,3,3,0,0,1,.5-.12l.7-.13.35-.05c.1,0,.29,0,.25-.06a.08.08,0,0,0-.05-.09s0-.08,0-.14a1.8,1.8,0,0,0,.06-.22c.07-.36.21-.9.36-1.39l.22-.67a5.6,5.6,0,0,1,.33-.8,5.37,5.37,0,0,1,1.12-1.51l.3-.25.13-.13a2.17,2.17,0,0,0,.21-.3l.07-.14.1-.26.19-.56c.06-.19.11-.36.17-.6a3.62,3.62,0,0,1,1.21-1.92,3.63,3.63,0,0,1,.49-.35l.23-.13.07,0a1.34,1.34,0,0,0,.66-.72c0-.07,0-.09.05-.14s0-.16,0-.13l0-.18.07-.7v-.09s0,0,0,0l0,0,.06,0a3.22,3.22,0,0,1-.5-1.87,3.19,3.19,0,0,1,.19-.94l0-.08s0-.1,0-.09l0,0s0-.2.07-.29l0-.24c.14-.15.19-.36,0-.7a3.63,3.63,0,0,0-.71-.94l0,0Z"/><path class="cls-1" d="M4.56,87.77l-.17.09c-.1,0-.31.13-.38.24a.39.39,0,0,0-.07.41.48.48,0,0,1,.14.26c0,.06,0,.22.07.19l.07,0c0-.1.17.09.31.21l.11.1a1.59,1.59,0,0,1,.19.25,1.9,1.9,0,0,1,.24.65,4,4,0,0,1,0,.94,3.66,3.66,0,0,1-.18.91,3.81,3.81,0,0,1-.41.87c-.15.25-.25.4-.39.61a2.19,2.19,0,0,0-.31.73,1.83,1.83,0,0,0-.06.37l0,.66a4.1,4.1,0,0,1-.44,1.85A3.42,3.42,0,0,1,2,98.43s-.07,0,0,0-.05,0,0,0a.11.11,0,0,0,0-.07.17.17,0,0,0,0-.1.14.14,0,0,0-.13-.07s-.12,0,0,.21l.24.42.37.66a6.48,6.48,0,0,1,.32.64,6.44,6.44,0,0,1-.69-.17l-.35-.11a.69.69,0,0,1-.22-.09l-.2-.09-.44-.19a1.36,1.36,0,0,1-.62-.56A1.71,1.71,0,0,1,0,97.77a1.75,1.75,0,0,1,.22-.62,1.78,1.78,0,0,1,.21-.29l.16-.18A1.47,1.47,0,0,0,.86,96a1.71,1.71,0,0,0,0-.31,1.09,1.09,0,0,1,0-.18s0-.21,0-.3,0-.43,0-.73a4.66,4.66,0,0,1,.12-1,4.37,4.37,0,0,1,.9-1.77c.14-.17.32-.37.43-.49a3.61,3.61,0,0,0,.25-.29,2.35,2.35,0,0,0,.19-.32c.06-.09.1-.29.14-.29a.26.26,0,0,0,.09.08s.05,0,0,0l-.06-.14c-.06-.2-.13-.28-.28-.71a1.64,1.64,0,0,1,0-.52,1,1,0,0,1,.07-.3,3.19,3.19,0,0,1,.23-.64,1.15,1.15,0,0,1,1-.59,1.07,1.07,0,0,1,.56.16Z"/><path class="cls-1" d="M6.26,97.19a1,1,0,0,0-.33.12.5.5,0,0,0-.27.5.28.28,0,0,0,.17.2l.06,0h0l.35-.84h0v0l0,.06a2.19,2.19,0,0,1,.09.23,2.51,2.51,0,0,1,.13.47,2.24,2.24,0,0,1,0,.63,2.45,2.45,0,0,1-.26.88,1.59,1.59,0,0,1-.23.36,1.77,1.77,0,0,1-.3.31,2.1,2.1,0,0,1-.66.39,2.13,2.13,0,0,1-.34.09.41.41,0,0,1-.15,0H4.43a1.54,1.54,0,0,1-.91-.32,1.07,1.07,0,0,1-.26-.28s.09-.13.19-.31a2,2,0,0,0,.23-.65.17.17,0,0,0,0-.07.1.1,0,0,0,0-.09,1.11,1.11,0,0,0,0-.15,1.21,1.21,0,0,0,0-.24s0-.07,0-.07,0-.05,0-.07a.15.15,0,0,1,0-.06c0,.06,0-.22,0-.35a2.52,2.52,0,0,1,.13-.47,2.16,2.16,0,0,1,.09-.23l0-.06.39-.9a1.34,1.34,0,0,1,.23-.12,1.53,1.53,0,0,1,.89-.12,1.12,1.12,0,0,1,.88.69.63.63,0,0,1,0,.29Z"/><path class="cls-1" d="M8.34,97.53a3.51,3.51,0,0,1,.3-.55h0L8.5,97h0v0l0-.06,0-.06v0h0l-.13,0h0a.24.24,0,0,1,0-.06l.14-.1a1.19,1.19,0,0,1,.26-.13,1.28,1.28,0,0,1,1.2.22,1.42,1.42,0,0,1,.44.58,1.69,1.69,0,0,1,.11.36,2.05,2.05,0,0,1,0,.34l-.45-1.22A1.82,1.82,0,0,1,11,98.08c0,.07,0,.13,0,.2v.12h0v-.07h0v0s0,.07,0,0a.61.61,0,0,0,0-.12.34.34,0,0,0-.18-.16.35.35,0,0,0-.44.19.47.47,0,0,0,0,.37,3.71,3.71,0,0,1,.27.52,3.71,3.71,0,0,1-.27.52,1,1,0,0,1-.56.29,1.44,1.44,0,0,1-1.28-.48,1.71,1.71,0,0,1-.38-.67l-.07-.35v0h0v-.08h0v.09a.39.39,0,0,0,.3.34L7.9,97.65s0,.12,0,.19a1.06,1.06,0,0,0,.08.22.76.76,0,0,0,.3.33.61.61,0,0,0,.67,0,.83.83,0,0,0,.12-.1l.07-.08,0,0h0l-.13,0h0l0,0,0,0,0,0,0,0h0l-.14,0h0A3.51,3.51,0,0,1,8.34,97.53Z"/><path class="cls-1" d="M9.64,98.77a3,3,0,0,1,.43,0c.11,0,.32.06.39,0a.32.32,0,0,0,.18-.23c0-.09,0-.19-.13-.23a.25.25,0,0,0-.15,0h0s0,0,0,0v0s0,0-.07,0a.17.17,0,0,0-.09.06s0,.07,0,0l0-.16a5.89,5.89,0,0,1,0-.66c0-.09,0-.15,0-.12s0,.05,0,0S10,97.18,10,97s0-.2-.06-.3V96.6l0-.09h0a1.58,1.58,0,0,1-.08-.24,1.29,1.29,0,0,1,0-.42,1.27,1.27,0,0,1,.92-1.07,1.23,1.23,0,0,1,.71,0l.07.05.11.1.21.2a5.1,5.1,0,0,1,.61.77,3,3,0,0,1,.21.37,3,3,0,0,1-.38.2,5.1,5.1,0,0,1-.93.32l-.29.06-.15,0s-.06,0-.06,0a1,1,0,0,0,.57,0,1,1,0,0,0,.75-.86,1,1,0,0,0,0-.34A1.25,1.25,0,0,0,12,95.5h0l0-.08.06.05c.08.07.15.15.23.23a2.71,2.71,0,0,1,.46.66A2.27,2.27,0,0,1,13,97a4.06,4.06,0,0,1,0,.54,5.73,5.73,0,0,1,0,.67l0,.16c0,.06,0,.23-.05.34a2.07,2.07,0,0,1-.26.67,2.88,2.88,0,0,1-.21.3l0,0-.07.08-.14.13a1.85,1.85,0,0,1-.61.34,1.67,1.67,0,0,1-1.17,0,1.33,1.33,0,0,1-.65-.58.93.93,0,0,1-.11-.49A3,3,0,0,1,9.64,98.77Z"/><path class="cls-2" d="M11.56,96.38l1,.46h0a3,3,0,0,0,2.23.18h0a1.38,1.38,0,0,1,.92,0l.1,0a10,10,0,0,1,1.36.67l.31.18a10.53,10.53,0,0,1,1.41,1h0a6.28,6.28,0,0,0,1.29.83l.66.32a.86.86,0,0,0,.37.09h0a.86.86,0,0,0,.81-.58h0a4.62,4.62,0,0,0,.25-1.5h0a1.43,1.43,0,0,1,.34-.93l0,0a.86.86,0,0,1,.45-.27l1.28-.32a8.48,8.48,0,0,0,1.36-.46h0a1.73,1.73,0,0,1,1.78.24h0a4.4,4.4,0,0,0,1.17.67l.41.16a.86.86,0,0,0,.25.06h0a1.22,1.22,0,0,1,1.13,1.22h0"/><path class="cls-1" d="M30,99.3a4,4,0,0,1,.16-.4,6.87,6.87,0,0,0,.26-.84c.08-.31.13-.62.19-.91s0-.29.08-.44v-.05h0l.51-.66h0l0,0,.13-.11.1-.08.07-.05h0a.55.55,0,0,0,.22-.15s.05-.12.09-.22.07-.2.11-.3l.12-.28.07-.14c0-.14,0-.08.08-.2a1.29,1.29,0,0,1,.58-.71,1,1,0,0,1,.6-.15.62.62,0,0,1,.43.2.64.64,0,0,0-.17.34.51.51,0,0,0,.05.31c.05.08.14.19.24.15s0,.11.06.06l.07.14.12.28c0,.1.07.2.11.3a1.32,1.32,0,0,1,.08.4A2.7,2.7,0,0,1,33.58,98l-.15.12-.07,0-.18.12-.15.09,0,0h0l.51-.66h0l-.05.1a3.25,3.25,0,0,1-.52.73,3,3,0,0,1-1.33.84,2.37,2.37,0,0,1-1.12.05A2.53,2.53,0,0,1,30,99.3Z"/><path class="cls-1" d="M34,93h-.1a.38.38,0,0,1-.27-.09.64.64,0,0,1-.25-.44,1.09,1.09,0,0,1,.14-.71,1.47,1.47,0,0,1,.61-.56,3.79,3.79,0,0,1,.38-.15c.06,0,.12-.06.14-.1a1.3,1.3,0,0,1,.48-.24,1.28,1.28,0,0,1,.52,0l.15,0h0l-.06,0h.08a.35.35,0,0,0-.09.13.63.63,0,0,0,0,.46.29.29,0,0,0,.31.17.25.25,0,0,0,.18-.2,2.85,2.85,0,0,1,0-.34,2.84,2.84,0,0,1,.32-.13.6.6,0,0,1,.45.1.93.93,0,0,1,.41.68,1.39,1.39,0,0,1-.29,1,1.24,1.24,0,0,1-.22.22l0,0v0h0l-.06,0h0a1.67,1.67,0,0,1-.18.18,2,2,0,0,1-1.93.42.64.64,0,0,1-.21-.09c-.05,0,0-.07,0-.12a.53.53,0,0,0,0-.31c0-.23-.25-.42-.42-.33s-.15.08-.16.14Z"/><path class="cls-2" d="M36.17,91.9,35.8,91a.52.52,0,0,1,0-.32h0a.9.9,0,0,1,.86-.72h0l.27.27A4.6,4.6,0,0,1,38,91.9h0v.67a3.14,3.14,0,0,0,.54,1.77h0a4.8,4.8,0,0,0,2.76.88h0a1.51,1.51,0,0,1,.42.06l.13,0a4.41,4.41,0,0,0,2.72-.1l.07-.27h0A11,11,0,0,0,45,92.1h0"/><path class="cls-1" d="M44.79,92a2.84,2.84,0,0,1-.1-.33,3.7,3.7,0,0,1-.1-.73,2.07,2.07,0,0,1,.5-1.47l0,0h0l-.12.15h0l0,0,.06-.07a1.14,1.14,0,0,1,.14-.14,1.62,1.62,0,0,1,.32-.23l0,0h0l-.09.14h0l.08-.05.18-.1a2.83,2.83,0,0,1,.38-.15,3.68,3.68,0,0,1,.72-.14,2.84,2.84,0,0,1,.35,0,2.84,2.84,0,0,1,.18.3,3.69,3.69,0,0,1,.28.68,2.83,2.83,0,0,1,.08.4c0,.07,0,.13,0,.2a.58.58,0,0,1,0,.1h0l-.09.14h0v.07a1.6,1.6,0,0,1-.12.37,1.13,1.13,0,0,1-.09.17l-.05.08,0,0-.15.19a2.07,2.07,0,0,1-1.43.6,3.7,3.7,0,0,1-.73,0A2.85,2.85,0,0,1,44.79,92Z"/><path class="cls-1" d="M48,88.31A2.71,2.71,0,0,0,48.3,88a1.9,1.9,0,0,0,.36-.75,1.35,1.35,0,0,0,0-.38v0h0l-.06.08h0v0l0-.08,0-.17c0-.11.06-.22.1-.33a5.12,5.12,0,0,1,.26-.66h0l-.06.11h0v0l0,0,0-.08a1.51,1.51,0,0,1,.07-.17l.07-.16.15-.27a6.22,6.22,0,0,1,.88-1.12,2.42,2.42,0,0,1,.79-.63,2.75,2.75,0,0,1,.77-.27,2.24,2.24,0,0,1,.67,0,3.7,3.7,0,0,1,.46.1,3.16,3.16,0,0,1,.42.14,3.16,3.16,0,0,1-.18.41,3.71,3.71,0,0,1-.24.41,5,5,0,0,0-.36.89c0,.13-.1.33-.06.36a6.22,6.22,0,0,1-.59,1.3l0,.08,0,0v0h0l.06-.11h0l-.09.16-.09.16,0,.08-.11.19a5.14,5.14,0,0,1-.47.53c-.09.08-.16.16-.25.24l-.13.11-.06.05h0l-.06.09h0l-.05,0a2.27,2.27,0,0,1-.81.42,1.83,1.83,0,0,1-1.25-.09A1.07,1.07,0,0,1,48,88.31Z"/><path class="cls-1" d="M51.31,84.35a4.42,4.42,0,0,1,.34-.45,9,9,0,0,1,1-1c.21-.18.44-.36.69-.54l.09-.07,0,0,0,0h0l-.5.37h0c0-.07.07-.15.09-.21a2.93,2.93,0,0,1,.08-.29,4,4,0,0,0,.13-1.24,2.07,2.07,0,0,0,0-.3l0-.15v0h0l0-.16V80q0-.25,0-.51v-.36h0l0-.2,0-.15a2.36,2.36,0,0,1,.81-1.6,2.23,2.23,0,0,1,1.22-.53,2.8,2.8,0,0,1,1.55.28,4.29,4.29,0,0,1,.48.3,4.44,4.44,0,0,1-.48.3,4,4,0,0,0-.9.74.46.46,0,0,0-.16.39c0,.09.08.21.14.1a.57.57,0,0,1,0,.1c0-.39,0-.11,0-.19h0v0l0,.06.07.24q.08.24.14.49l0,.12,0,.06h0l0-.15h0v.06a2.68,2.68,0,0,1,.09.35,4.69,4.69,0,0,1,.1.73,4.23,4.23,0,0,1-.8,2.67,4.55,4.55,0,0,1-.44.51l-.19.16-.53.39h-.2c-.31,0-.6.05-.88.06a9,9,0,0,1-1.38-.08A4.41,4.41,0,0,1,51.31,84.35Z"/><path class="cls-2" d="M54.59,78.35h0a2.67,2.67,0,0,1,2.58-.67l.47.13.77.24a6.42,6.42,0,0,0,1.93.3h0l1.48-.85a7.16,7.16,0,0,1,.84-.41l0,0a8.23,8.23,0,0,1,3.12-.61h0a1.24,1.24,0,0,0,1.08-.62L67,75.6q.23-.39.41-.81h0a.76.76,0,0,0-.26-.94l-.38-.27"/><path class="cls-1" d="M67.34,74.34a2.82,2.82,0,0,1-1.09-.75,3.6,3.6,0,0,1-.7-1.11,4.56,4.56,0,0,1-.2-.63l0-.16v0h0l.07.42h0l0-.06c0-.08-.09-.16-.13-.24a7.53,7.53,0,0,1-.44-1l.4.62a8,8,0,0,1-.71-.68l-1.38-1.49,1.58-.82.21-.11.05,0s.06,0,0,0h0l.11-.05.13-.05.13-.06a5.49,5.49,0,0,0,.6-.33,6.63,6.63,0,0,0,.68-.5,8.09,8.09,0,0,0,.75-.78,2.2,2.2,0,0,1,.49,1.12,2.8,2.8,0,0,1-.09,1.26,3.33,3.33,0,0,1-.6,1.16,2.23,2.23,0,0,1-.23.26l-.25.24-.09.08-.13.1-.19.15.2-2.31a8,8,0,0,1,.73.65l.31.31.1.31a7.53,7.53,0,0,1,.24,1c0,.09,0,.18,0,.27v.07l.07.45v0l0,.1-.11.42c-.08.29-.15.61-.23,1S67.43,73.88,67.34,74.34Z"/><path class="cls-2" d="M10.42,64.11l.07.12a4,4,0,0,1,.3,3h0"/><path class="cls-2" d="M1.94,99.44l.73.35a1.86,1.86,0,0,0,1.52,0h0"/><path class="cls-1" d="M29.83,97.74l.3.12a3.77,3.77,0,0,1,.57.32s.09.12.13.05l.07,0,.05-.1a.44.44,0,0,0,.1-.29.52.52,0,0,0-.43-.48h-.15l-.67.16h0a.56.56,0,0,1,.13,0,.89.89,0,0,1,.28,0,1.78,1.78,0,0,1,.61.21,3.77,3.77,0,0,1,.54.37c.14.12.24.21.24.21s0,.14,0,.32a3.78,3.78,0,0,1,0,.65,1.77,1.77,0,0,1-.2.61.89.89,0,0,1-.17.23.56.56,0,0,1-.1.09h0l-.67.16H30.3l-.22,0a1.68,1.68,0,0,1-1.27-1,1.44,1.44,0,0,1-.08-.73,1.92,1.92,0,0,1,0-.21.24.24,0,0,1,.06-.06c0-.14.09-.1.13-.15a3.78,3.78,0,0,1,.57-.32Z"/><path class="cls-1" d="M44.6,93.14s-.11-.08-.25-.2a2.82,2.82,0,0,1-.23-.21,2.62,2.62,0,0,1-.22-.28,1.46,1.46,0,0,1,0-1.47,1.35,1.35,0,0,1,.55-.5,1.31,1.31,0,0,1,.73-.13,3.71,3.71,0,0,1,.65.14l.31.11a3.21,3.21,0,0,1,.13.3,3.72,3.72,0,0,1,.19.64c0,.24.09.42.09.59a.71.71,0,0,1-.07.4,1.34,1.34,0,0,1-.88.41c-.1,0-.23.08-.33.09l-.3.07Z"/><path class="cls-2" d="M67.23,75.07l-.56-1.28a3.71,3.71,0,0,1,0-2.86h0"/></g></g></svg>